<?xml version="1.0" encoding="UTF-8" standalone="no"?>
<!DOCTYPE svg PUBLIC "-//W3C//DTD SVG 1.1//EN" "http://www.w3.org/Graphics/SVG/1.1/DTD/svg11.dtd">
<svg width="100%" height="100%" viewBox="0 0 3574 684" version="1.1" xmlns="http://www.w3.org/2000/svg" xmlns:xlink="http://www.w3.org/1999/xlink" xml:space="preserve" xmlns:serif="http://www.serif.com/" style="fill-rule:evenodd;clip-rule:evenodd;stroke-linejoin:round;stroke-miterlimit:2;">
    <g id="Header">
        <g id="Header-Background" serif:id="Header Background" opacity="0.25">
            <rect x="-0.595" y="-0.863" width="3577.11" height="688.351" style="fill:none;"/>
            <g>
                <clipPath id="_clip1">
                    <rect x="-0.595" y="-0.863" width="3577.11" height="688.351"/>
                </clipPath>
                <g clip-path="url(#_clip1)">
                    <path d="M364.726,435.201C358.263,443.025 350.269,449.147 340.745,453.569C331.22,457.991 320.846,460.202 309.621,460.202C302.477,460.202 295.589,459.182 288.956,457.141C282.323,455.1 276.115,452.379 270.333,448.977L270.843,448.977L270.333,448.977L126.957,592.863C130.359,598.305 133.08,604.343 135.121,610.976C137.162,617.609 138.183,624.497 138.183,631.641C138.183,651.71 130.954,668.973 116.498,683.429C102.041,697.886 84.778,705.114 64.709,705.114C45.66,705.114 29.248,698.821 15.472,686.235C1.695,673.65 -6.213,658.173 -8.254,639.804L-8.764,639.804C-27.133,637.423 -42.61,629.344 -55.196,615.568C-67.781,601.792 -74.074,585.379 -74.074,566.331C-74.074,546.262 -66.846,528.999 -52.389,514.542C-37.933,500.086 -20.67,492.857 -0.601,492.857C6.543,492.857 13.431,493.878 20.064,495.919C26.697,497.96 32.905,500.681 38.687,504.082L38.177,504.082L38.687,504.082L182.063,360.707L182.063,360.197C178.661,354.754 175.94,348.717 173.899,342.084C171.858,335.451 170.837,328.562 170.837,321.419C170.837,301.35 178.066,284.087 192.522,269.631C206.979,255.174 224.242,247.946 244.311,247.946C263.36,247.946 279.772,254.239 293.548,266.824C307.325,279.41 315.233,294.887 317.274,313.256L317.274,313.766C335.983,315.807 351.63,323.715 364.216,337.492C376.801,351.268 383.094,367.68 383.094,386.729C383.094,395.913 381.478,404.672 378.247,413.006C375.015,421.34 370.508,428.738 364.726,435.201Z" style="fill:url(#_Linear2);fill-rule:nonzero;"/>
                    <g>
                        <path d="M1327.5,724.554C1321.3,724.717 1315.28,723.492 1309.43,720.881C1303.57,718.271 1298.39,714.382 1293.89,709.215C1291.03,705.928 1288.74,702.348 1287.02,698.477C1285.3,694.605 1284.06,690.657 1283.31,686.632L1283.51,686.866C1283.38,686.71 1283.31,686.632 1283.31,686.632L1159.6,678.33C1158.45,682.078 1156.77,685.751 1154.53,689.35C1152.3,692.949 1149.54,696.181 1146.25,699.045C1137.01,707.091 1126.17,710.686 1113.72,709.828C1101.27,708.971 1091.02,703.923 1082.97,694.686C1075.33,685.918 1071.65,675.841 1071.92,664.454C1072.19,653.067 1076.14,643.221 1083.78,634.917L1083.57,634.682C1077.3,625.273 1074.82,614.91 1076.11,603.594C1077.41,592.277 1082.44,582.8 1091.2,575.163C1100.44,567.116 1111.29,563.522 1123.74,564.379C1136.19,565.237 1146.43,570.284 1154.48,579.522C1157.35,582.81 1159.64,586.389 1161.36,590.261C1163.08,594.132 1164.31,598.08 1165.07,602.106L1164.86,601.871C1164.86,601.871 1164.93,601.949 1165.07,602.106L1288.55,610.611C1288.55,610.611 1288.62,610.543 1288.78,610.407C1289.92,606.659 1291.61,602.986 1293.84,599.387C1296.08,595.788 1298.84,592.556 1302.13,589.692C1311.36,581.646 1322.21,578.051 1334.66,578.909C1347.11,579.766 1357.36,584.814 1365.4,594.051C1373.04,602.819 1376.73,612.896 1376.46,624.283C1376.19,635.67 1372.23,645.516 1364.6,653.82L1364.36,654.025C1370.92,663.454 1373.56,673.827 1372.26,685.143C1370.97,696.46 1365.94,705.937 1357.17,713.574C1352.94,717.257 1348.26,720.025 1343.13,721.879C1338,723.733 1332.79,724.625 1327.5,724.554Z" style="fill:url(#_Linear3);fill-rule:nonzero;"/>
                    </g>
                    <path d="M1830.41,214.978C1828.04,217.847 1825.11,220.093 1821.62,221.715C1818.12,223.337 1814.32,224.148 1810.2,224.148C1807.58,224.148 1805.06,223.773 1802.62,223.025C1800.19,222.276 1797.91,221.278 1795.79,220.03L1795.98,220.03L1795.79,220.03L1743.2,272.806C1744.45,274.802 1745.45,277.017 1746.2,279.449C1746.95,281.882 1747.32,284.409 1747.32,287.029C1747.32,294.39 1744.67,300.722 1739.37,306.024C1734.06,311.327 1727.73,313.978 1720.37,313.978C1713.38,313.978 1707.37,311.67 1702.31,307.054C1697.26,302.437 1694.36,296.761 1693.61,290.023L1693.42,290.023C1686.68,289.15 1681.01,286.187 1676.39,281.134C1671.78,276.081 1669.47,270.061 1669.47,263.074C1669.47,255.713 1672.12,249.381 1677.42,244.079C1682.72,238.776 1689.06,236.125 1696.42,236.125C1699.04,236.125 1701.56,236.499 1704,237.248C1706.43,237.997 1708.71,238.995 1710.83,240.242L1710.64,240.242L1710.83,240.242L1763.41,187.654L1763.41,187.467C1762.17,185.471 1761.17,183.256 1760.42,180.823C1759.67,178.39 1759.3,175.864 1759.3,173.244C1759.3,165.883 1761.95,159.551 1767.25,154.248C1772.55,148.946 1778.89,146.295 1786.25,146.295C1793.23,146.295 1799.25,148.603 1804.31,153.219C1809.36,157.835 1812.26,163.512 1813.01,170.25L1813.01,170.437C1819.87,171.185 1825.61,174.086 1830.23,179.139C1834.84,184.192 1837.15,190.212 1837.15,197.199C1837.15,200.567 1836.56,203.78 1835.37,206.837C1834.19,209.893 1832.53,212.607 1830.41,214.978Z" style="fill:url(#_Linear4);fill-rule:nonzero;"/>
                    <g>
                        <path d="M2723.98,419.088C2716.08,413.942 2709.59,407.205 2704.51,398.876C2699.43,390.547 2696.3,381.202 2695.12,370.839C2694.38,364.245 2694.59,357.779 2695.78,351.442C2696.97,345.104 2698.83,339.088 2701.37,333.393L2701.42,333.864C2701.38,333.55 2701.37,333.393 2701.37,333.393L2553.5,216.123C2548.84,219.834 2543.55,222.98 2537.64,225.559C2531.73,228.139 2525.48,229.803 2518.88,230.552C2500.36,232.657 2483.66,227.794 2468.8,215.964C2453.94,204.135 2445.45,188.956 2443.35,170.429C2441.35,152.844 2445.44,137.033 2455.62,122.996C2465.79,108.959 2479.25,100.035 2495.99,96.225L2495.94,95.754C2496.21,78.547 2502.04,63.412 2513.44,50.349C2524.84,37.286 2539.33,29.755 2556.92,27.758C2575.44,25.654 2592.14,30.516 2607,42.346C2621.86,54.176 2630.34,69.354 2632.45,87.881C2633.2,94.475 2632.98,100.941 2631.79,107.278C2630.6,113.616 2628.74,119.632 2626.2,125.327L2626.15,124.856C2626.15,124.856 2626.17,125.013 2626.2,125.327L2773.6,242.65C2773.6,242.65 2773.75,242.632 2774.07,242.596C2778.74,238.886 2784.02,235.74 2789.93,233.161C2795.84,230.581 2802.1,228.917 2808.69,228.168C2827.22,226.063 2843.91,230.926 2858.77,242.756C2873.63,254.585 2882.12,269.764 2884.22,288.291C2886.22,305.875 2882.13,321.687 2871.96,335.724C2861.78,349.761 2848.32,358.685 2831.58,362.495L2831.11,362.549C2831.19,380.034 2825.53,395.308 2814.13,408.371C2802.73,421.434 2788.24,428.964 2770.66,430.962C2762.18,431.925 2753.92,431.352 2745.89,429.243C2737.86,427.133 2730.55,423.748 2723.98,419.088Z" style="fill:url(#_Linear5);fill-rule:nonzero;"/>
                    </g>
                    <path d="M3270.48,634.303C3266.3,639.366 3261.12,643.328 3254.96,646.19C3248.8,649.052 3242.08,650.483 3234.82,650.483C3230.19,650.483 3225.74,649.822 3221.44,648.502C3217.15,647.181 3213.13,645.42 3209.39,643.218L3209.72,643.218L3209.39,643.218L3116.61,736.333C3118.81,739.855 3120.57,743.762 3121.89,748.055C3123.21,752.347 3123.87,756.805 3123.87,761.427C3123.87,774.415 3119.2,785.586 3109.84,794.942C3100.48,804.297 3089.31,808.975 3076.33,808.975C3064,808.975 3053.38,804.903 3044.46,796.758C3035.55,788.613 3030.43,778.597 3029.11,766.71L3028.78,766.71C3016.89,765.169 3006.87,759.941 2998.73,751.026C2990.59,742.111 2986.51,731.49 2986.51,719.163C2986.51,706.175 2991.19,695.004 3000.55,685.648C3009.9,676.293 3021.07,671.615 3034.06,671.615C3038.68,671.615 3043.14,672.275 3047.43,673.596C3051.72,674.917 3055.74,676.678 3059.49,678.879L3059.16,678.879L3059.49,678.879L3152.27,586.095L3152.27,585.765C3150.07,582.243 3148.31,578.336 3146.99,574.043C3145.66,569.751 3145.01,565.293 3145.01,560.67C3145.01,547.683 3149.68,536.511 3159.04,527.156C3168.39,517.8 3179.57,513.123 3192.55,513.123C3204.88,513.123 3215.5,517.195 3224.42,525.34C3233.33,533.484 3238.45,543.5 3239.77,555.387L3239.77,555.717C3251.88,557.038 3262,562.156 3270.15,571.071C3278.29,579.987 3282.37,590.608 3282.37,602.935C3282.37,608.878 3281.32,614.547 3279.23,619.94C3277.14,625.333 3274.22,630.121 3270.48,634.303Z" style="fill:url(#_Linear6);fill-rule:nonzero;"/>
                    <path d="M3692.55,179.082C3688.37,184.145 3683.19,188.107 3677.03,190.969C3670.87,193.831 3664.15,195.262 3656.89,195.262C3652.26,195.262 3647.81,194.601 3643.51,193.281C3639.22,191.96 3635.2,190.199 3631.46,187.997L3631.79,187.997L3631.46,187.997L3538.68,281.112C3540.88,284.634 3542.64,288.541 3543.96,292.834C3545.28,297.126 3545.94,301.584 3545.94,306.206C3545.94,319.194 3541.26,330.365 3531.91,339.721C3522.55,349.076 3511.38,353.754 3498.39,353.754C3486.07,353.754 3475.45,349.682 3466.53,341.537C3457.62,333.392 3452.5,323.376 3451.18,311.489L3450.85,311.489C3438.96,309.948 3428.94,304.72 3420.8,295.805C3412.66,286.89 3408.58,276.269 3408.58,263.942C3408.58,250.954 3413.26,239.783 3422.62,230.427C3431.97,221.072 3443.14,216.394 3456.13,216.394C3460.75,216.394 3465.21,217.054 3469.5,218.375C3473.8,219.696 3477.81,221.457 3481.56,223.658L3481.22,223.658L3481.56,223.658L3574.34,130.874L3574.34,130.544C3572.14,127.022 3570.38,123.115 3569.06,118.822C3567.74,114.53 3567.08,110.072 3567.08,105.449C3567.08,92.462 3571.75,81.29 3581.11,71.935C3590.46,62.579 3601.64,57.902 3614.62,57.902C3626.95,57.902 3637.57,61.974 3646.49,70.119C3655.4,78.263 3660.52,88.279 3661.84,100.166L3661.84,100.496C3673.95,101.817 3684.07,106.935 3692.22,115.85C3700.36,124.766 3704.43,135.387 3704.43,147.714C3704.43,153.657 3703.39,159.326 3701.3,164.719C3699.21,170.112 3696.29,174.9 3692.55,179.082Z" style="fill:url(#_Linear7);fill-rule:nonzero;"/>
                    <g>
                        <path d="M2476.46,692.314C2468.6,696.257 2460.12,698.317 2451.03,698.493C2441.93,698.669 2432.93,696.796 2424.03,692.872C2418.37,690.374 2413.26,687.158 2408.72,683.221C2404.17,679.284 2400.2,674.956 2396.81,670.238L2397.21,670.417C2396.94,670.298 2396.81,670.238 2396.81,670.238L2232.84,734.191C2233.64,739.695 2233.68,745.433 2232.98,751.405C2232.28,757.377 2230.68,763.195 2228.18,768.858C2221.17,784.769 2209.4,795.928 2192.89,802.336C2176.37,808.743 2160.16,808.439 2144.25,801.424C2129.15,794.765 2118.34,784.038 2111.81,769.244C2105.29,754.45 2104.43,739.416 2109.24,724.14L2108.83,723.961C2095.1,715.652 2085.66,703.837 2080.49,688.516C2075.33,673.194 2076.08,657.982 2082.74,642.88C2089.75,626.97 2101.52,615.81 2118.03,609.403C2134.55,602.995 2150.76,603.299 2166.67,610.315C2172.34,612.812 2177.44,616.029 2181.99,619.966C2186.53,623.902 2190.5,628.23 2193.9,632.948L2193.49,632.77C2193.49,632.77 2193.63,632.829 2193.9,632.948L2357.68,569.4C2357.68,569.4 2357.74,569.265 2357.86,568.996C2357.07,563.492 2357.02,557.754 2357.72,551.781C2358.42,545.809 2360.02,539.992 2362.52,534.328C2369.53,518.418 2381.3,507.258 2397.82,500.851C2414.33,494.443 2430.54,494.747 2446.45,501.763C2461.56,508.422 2472.37,519.148 2478.89,533.942C2485.41,548.736 2486.27,563.771 2481.47,579.047L2481.29,579.451C2495.41,587.609 2505.05,599.349 2510.21,614.671C2515.37,629.992 2514.63,645.204 2507.97,660.306C2504.76,667.587 2500.41,673.967 2494.94,679.444C2489.46,684.921 2483.3,689.211 2476.46,692.314Z" style="fill:url(#_Linear8);fill-rule:nonzero;"/>
                    </g>
                    <g>
                        <path d="M804.333,61.647C811.328,66.974 816.904,73.685 821.059,81.779C825.214,89.873 827.485,98.779 827.87,108.497C828.115,114.682 827.468,120.681 825.929,126.493C824.389,132.306 822.246,137.774 819.5,142.897L819.482,142.455C819.494,142.75 819.5,142.897 819.5,142.897L948.993,262.089C953.588,258.958 958.722,256.394 964.395,254.4C970.067,252.405 975.996,251.285 982.18,251.04C999.556,250.351 1014.75,256.017 1027.76,268.037C1040.77,280.057 1047.62,294.755 1048.31,312.13C1048.97,328.622 1044.08,343.047 1033.66,355.406C1023.24,367.765 1010.11,375.144 994.274,377.541L994.292,377.983C992.86,393.967 986.397,407.644 974.902,419.013C963.407,430.383 949.413,436.394 932.922,437.048C915.546,437.737 900.352,432.071 887.34,420.051C874.328,408.031 867.477,393.333 866.789,375.958C866.543,369.774 867.191,363.775 868.73,357.962C870.269,352.15 872.412,346.682 875.159,341.558L875.176,342C875.176,342 875.17,341.853 875.159,341.558L746.107,222.349C746.107,222.349 745.96,222.355 745.666,222.366C741.07,225.498 735.936,228.061 730.264,230.056C724.591,232.05 718.663,233.17 712.478,233.416C695.103,234.104 679.909,228.439 666.897,216.419C653.884,204.399 647.034,189.701 646.345,172.326C645.691,155.834 650.576,141.408 661,129.049C671.423,116.69 684.552,109.312 700.384,106.915L700.826,106.897C701.951,90.63 708.261,76.811 719.756,65.442C731.251,54.073 745.245,48.062 761.737,47.408C769.688,47.093 777.327,48.191 784.653,50.703C791.979,53.214 798.539,56.862 804.333,61.647Z" style="fill:url(#_Linear9);fill-rule:nonzero;"/>
                    </g>
                </g>
            </g>
        </g>
    </g>
    <defs>
        <linearGradient id="_Linear2" x1="0" y1="0" x2="1" y2="0" gradientUnits="userSpaceOnUse" gradientTransform="matrix(457.168,0,0,457.168,-180.803,1181.64)"><stop offset="0" style="stop-color:rgb(0,238,255);stop-opacity:1"/><stop offset="1" style="stop-color:rgb(224,0,255);stop-opacity:1"/></linearGradient>
        <linearGradient id="_Linear3" x1="0" y1="0" x2="1" y2="0" gradientUnits="userSpaceOnUse" gradientTransform="matrix(183.3,210.422,-210.422,183.3,5836.16,6629.47)"><stop offset="0" style="stop-color:rgb(0,238,255);stop-opacity:1"/><stop offset="1" style="stop-color:rgb(224,0,255);stop-opacity:1"/></linearGradient>
        <linearGradient id="_Linear4" x1="0" y1="0" x2="1" y2="0" gradientUnits="userSpaceOnUse" gradientTransform="matrix(167.683,0,0,167.683,3326.95,544.114)"><stop offset="0" style="stop-color:rgb(0,238,255);stop-opacity:1"/><stop offset="1" style="stop-color:rgb(224,0,255);stop-opacity:1"/></linearGradient>
        <linearGradient id="_Linear5" x1="0" y1="0" x2="1" y2="0" gradientUnits="userSpaceOnUse" gradientTransform="matrix(47.9391,422.037,-422.037,47.9391,230.901,18531.8)"><stop offset="0" style="stop-color:rgb(0,238,255);stop-opacity:1"/><stop offset="1" style="stop-color:rgb(224,0,255);stop-opacity:1"/></linearGradient>
        <linearGradient id="_Linear6" x1="0" y1="0" x2="1" y2="0" gradientUnits="userSpaceOnUse" gradientTransform="matrix(295.852,0,0,295.852,5951.89,1470.02)"><stop offset="0" style="stop-color:rgb(0,238,255);stop-opacity:1"/><stop offset="1" style="stop-color:rgb(224,0,255);stop-opacity:1"/></linearGradient>
        <linearGradient id="_Linear7" x1="0" y1="0" x2="1" y2="0" gradientUnits="userSpaceOnUse" gradientTransform="matrix(295.852,0,0,295.852,6796.03,559.582)"><stop offset="0" style="stop-color:rgb(0,238,255);stop-opacity:1"/><stop offset="1" style="stop-color:rgb(224,0,255);stop-opacity:1"/></linearGradient>
        <linearGradient id="_Linear8" x1="0" y1="0" x2="1" y2="0" gradientUnits="userSpaceOnUse" gradientTransform="matrix(362.445,159.815,-159.815,362.445,8295.16,2864.74)"><stop offset="0" style="stop-color:rgb(0,238,255);stop-opacity:1"/><stop offset="1" style="stop-color:rgb(224,0,255);stop-opacity:1"/></linearGradient>
        <linearGradient id="_Linear9" x1="0" y1="0" x2="1" y2="0" gradientUnits="userSpaceOnUse" gradientTransform="matrix(-15.6904,-395.804,395.804,-15.6904,17134.3,3836.28)"><stop offset="0" style="stop-color:rgb(0,238,255);stop-opacity:1"/><stop offset="1" style="stop-color:rgb(224,0,255);stop-opacity:1"/></linearGradient>
    </defs>
</svg>
