<?xml version="1.0" encoding="UTF-8" standalone="no"?>
<!DOCTYPE svg PUBLIC "-//W3C//DTD SVG 1.1//EN" "http://www.w3.org/Graphics/SVG/1.1/DTD/svg11.dtd">
<svg width="100%" height="100%" viewBox="0 0 654 194" version="1.1" xmlns="http://www.w3.org/2000/svg" xmlns:xlink="http://www.w3.org/1999/xlink" xml:space="preserve" xmlns:serif="http://www.serif.com/" style="fill-rule:evenodd;clip-rule:evenodd;stroke-linecap:round;stroke-linejoin:round;stroke-miterlimit:1.5;">
    <path d="M181.285,56.561C183.569,56.561 185.711,56.751 187.709,57.132C189.708,57.512 191.445,58.179 192.921,59.131C194.444,60.035 195.633,61.272 196.49,62.843C197.394,64.413 197.846,66.388 197.846,68.768C197.846,70.434 197.704,71.838 197.418,72.98C197.133,74.122 196.752,75.074 196.276,75.835C195.848,76.597 195.324,77.216 194.705,77.691C194.134,78.167 193.539,78.548 192.921,78.834C192.54,79.072 192.302,79.238 192.207,79.333C192.112,79.429 192.064,79.571 192.064,79.762C192.064,80.047 192.278,80.261 192.707,80.404C193.42,80.785 194.134,81.261 194.848,81.832C195.61,82.355 196.276,83.069 196.847,83.974C197.418,84.878 197.894,85.996 198.275,87.329C198.656,88.614 198.846,90.184 198.846,92.04C198.846,94.563 198.37,96.657 197.418,98.322C196.466,99.988 195.229,101.321 193.706,102.32C192.231,103.32 190.565,104.033 188.709,104.462C186.853,104.89 185.021,105.104 183.212,105.104L163.937,105.104C163.461,105.104 163.223,104.866 163.223,104.39L163.223,57.275C163.223,56.799 163.461,56.561 163.937,56.561L181.285,56.561ZM178.072,76.763C180.499,76.763 182.284,76.383 183.426,75.621C184.568,74.812 185.139,73.17 185.139,70.695C185.139,68.982 184.711,67.697 183.855,66.84C182.998,65.984 181.618,65.556 179.714,65.556L176.573,65.556C176.192,65.556 176.002,65.722 176.002,66.055L176.002,76.121C176.002,76.406 176.026,76.597 176.073,76.692C176.168,76.74 176.335,76.763 176.573,76.763L178.072,76.763ZM179.143,95.824C180.428,95.824 181.499,95.729 182.355,95.538C183.212,95.348 183.878,95.039 184.354,94.61C184.83,94.134 185.163,93.516 185.354,92.754C185.544,91.993 185.639,91.065 185.639,89.97C185.639,87.828 185.092,86.377 183.997,85.615C182.903,84.854 181.475,84.473 179.714,84.473L176.573,84.473C176.192,84.473 176.002,84.687 176.002,85.116L176.002,95.253C176.002,95.634 176.192,95.824 176.573,95.824L179.143,95.824Z" style="fill:white;fill-rule:nonzero;"/>
    <path d="M218.763,76.264C218.097,76.264 217.335,76.287 216.479,76.335C215.622,76.383 214.742,76.454 213.837,76.549C212.933,76.644 212.053,76.74 211.196,76.835C210.387,76.93 209.697,77.025 209.126,77.12C208.888,77.168 208.65,77.192 208.412,77.192C208.222,77.144 208.103,77.001 208.055,76.763L207.555,68.554C207.46,68.03 207.603,67.697 207.984,67.554C208.65,67.364 209.554,67.197 210.696,67.055C211.838,66.864 213.052,66.722 214.337,66.626C215.67,66.484 217.026,66.388 218.406,66.341C219.834,66.246 221.143,66.198 222.332,66.198C224.522,66.198 226.544,66.388 228.4,66.769C230.304,67.102 231.946,67.697 233.326,68.554C234.706,69.363 235.777,70.481 236.539,71.909C237.3,73.289 237.681,75.026 237.681,77.12L237.681,103.32C237.681,103.558 237.609,103.772 237.467,103.962C237.371,104.105 237.134,104.248 236.753,104.39C235.944,104.628 234.968,104.843 233.826,105.033C232.731,105.176 231.541,105.295 230.257,105.39C228.972,105.533 227.663,105.628 226.33,105.675C224.998,105.771 223.689,105.818 222.404,105.818C219.025,105.818 216.193,105.652 213.909,105.318C211.672,104.985 209.863,104.39 208.483,103.534C207.151,102.677 206.175,101.535 205.556,100.107C204.985,98.679 204.7,96.847 204.7,94.61C204.7,92.659 204.842,91.017 205.128,89.685C205.414,88.304 205.985,87.162 206.841,86.258C207.746,85.354 209.007,84.64 210.625,84.116C212.243,83.545 214.361,83.093 216.978,82.76L224.688,81.832C224.974,81.784 225.117,81.642 225.117,81.404L225.117,79.476C225.117,78.191 224.641,77.334 223.689,76.906C222.785,76.478 221.143,76.264 218.763,76.264ZM225.117,89.185C225.117,88.852 224.95,88.685 224.617,88.685L222.118,88.685C221.166,88.685 220.334,88.733 219.62,88.828C218.906,88.923 218.311,89.137 217.835,89.47C217.407,89.804 217.074,90.303 216.836,90.97C216.645,91.588 216.55,92.421 216.55,93.468C216.55,94.563 216.645,95.419 216.836,96.038C217.026,96.657 217.312,97.133 217.692,97.466C218.121,97.799 218.644,98.013 219.263,98.108C219.929,98.156 220.714,98.18 221.619,98.18C222.237,98.18 222.832,98.156 223.403,98.108C223.974,98.061 224.427,97.989 224.76,97.894C224.998,97.799 225.117,97.632 225.117,97.394L225.117,89.185Z" style="fill:white;fill-rule:nonzero;"/>
    <path d="M264.237,105.033C263.38,105.318 262.31,105.509 261.025,105.604C259.74,105.747 258.478,105.818 257.241,105.818C254.1,105.818 251.72,105.152 250.102,103.819C248.484,102.487 247.675,100.298 247.675,97.252L247.675,77.049C247.675,76.763 247.532,76.621 247.247,76.621L243.32,76.621C242.845,76.621 242.607,76.383 242.607,75.907L242.607,67.626C242.607,67.15 242.845,66.912 243.32,66.912L247.247,66.912C247.532,66.912 247.675,66.769 247.675,66.484L247.675,57.56C247.675,57.084 247.913,56.846 248.389,56.846L259.597,56.846C260.073,56.846 260.311,57.084 260.311,57.56L260.311,66.484C260.311,66.769 260.454,66.912 260.739,66.912L265.736,66.912C266.212,66.912 266.45,67.15 266.45,67.626L266.45,75.907C266.45,76.383 266.212,76.621 265.736,76.621L260.739,76.621C260.454,76.621 260.311,76.763 260.311,77.049L260.311,93.325C260.311,94.563 260.525,95.372 260.953,95.753C261.382,96.133 262.167,96.324 263.309,96.324L264.451,96.324C264.927,96.324 265.165,96.562 265.165,97.037L264.951,104.105C264.951,104.628 264.713,104.938 264.237,105.033Z" style="fill:white;fill-rule:nonzero;"/>
    <path d="M295.862,104.747C294.72,105.128 293.363,105.39 291.793,105.533C290.27,105.723 288.747,105.818 287.224,105.818C284.13,105.818 281.513,105.39 279.371,104.533C277.23,103.677 275.493,102.439 274.16,100.821C272.827,99.155 271.852,97.109 271.233,94.682C270.662,92.207 270.376,89.399 270.376,86.258C270.376,83.212 270.662,80.452 271.233,77.977C271.804,75.502 272.732,73.384 274.017,71.623C275.302,69.863 276.992,68.53 279.086,67.626C281.227,66.674 283.845,66.198 286.938,66.198C288.604,66.198 290.222,66.293 291.793,66.484C293.363,66.626 294.553,66.84 295.362,67.126C295.648,67.221 295.79,67.435 295.79,67.769L295.362,76.335C295.362,76.43 295.315,76.525 295.219,76.621C295.172,76.716 295.053,76.74 294.862,76.692C293.244,76.311 291.674,76.121 290.151,76.121C288.961,76.121 287.938,76.264 287.081,76.549C286.272,76.787 285.606,77.287 285.082,78.048C284.606,78.81 284.249,79.857 284.011,81.189C283.821,82.474 283.726,84.188 283.726,86.329C283.726,88.233 283.821,89.804 284.011,91.041C284.202,92.231 284.535,93.183 285.011,93.896C285.534,94.563 286.224,95.039 287.081,95.324C287.938,95.562 289.009,95.681 290.294,95.681C291.103,95.681 291.936,95.634 292.792,95.538C293.649,95.443 294.434,95.324 295.148,95.181C295.291,95.134 295.433,95.134 295.576,95.181C295.719,95.181 295.814,95.277 295.862,95.467L296.219,104.176C296.219,104.509 296.1,104.7 295.862,104.747Z" style="fill:white;fill-rule:nonzero;"/>
    <path d="M301.93,53.348C301.93,52.872 302.168,52.634 302.644,52.634L313.852,52.634C314.327,52.634 314.565,52.872 314.565,53.348L314.565,66.484C314.565,66.864 314.827,67.055 315.351,67.055C316.731,66.769 318.04,66.555 319.277,66.412C320.562,66.269 321.68,66.198 322.632,66.198C325.107,66.198 327.201,66.436 328.914,66.912C330.675,67.388 332.079,68.173 333.126,69.268C334.173,70.362 334.935,71.814 335.411,73.622C335.887,75.383 336.124,77.572 336.124,80.19L336.124,104.39C336.124,104.866 335.887,105.104 335.411,105.104L324.06,105.104C323.584,105.104 323.346,104.866 323.346,104.39L323.346,80.904C323.346,79.048 323.037,77.763 322.418,77.049C321.799,76.287 320.538,75.907 318.635,75.907C317.921,75.907 317.278,75.931 316.707,75.978C316.136,76.026 315.636,76.097 315.208,76.192C314.78,76.24 314.565,76.478 314.565,76.906L314.565,104.39C314.565,104.866 314.327,105.104 313.852,105.104L302.644,105.104C302.168,105.104 301.93,104.866 301.93,104.39L301.93,53.348Z" style="fill:white;fill-rule:nonzero;"/>
    <path d="M362.824,56.561C365.393,56.561 367.678,56.775 369.677,57.203C371.676,57.631 373.365,58.417 374.745,59.559C376.125,60.701 377.172,62.295 377.886,64.342C378.6,66.341 378.957,68.935 378.957,72.123C378.957,75.788 378.481,78.762 377.529,81.047C376.625,83.331 375.388,85.116 373.817,86.401C372.247,87.686 370.438,88.566 368.392,89.042C366.345,89.47 364.227,89.685 362.038,89.685L359.397,89.685C358.588,89.685 358.064,89.732 357.826,89.827C357.588,89.875 357.469,90.018 357.469,90.256L357.469,104.39C357.469,104.866 357.231,105.104 356.756,105.104L345.405,105.104C344.929,105.104 344.691,104.866 344.691,104.39L344.691,57.275C344.691,56.799 344.929,56.561 345.405,56.561L362.824,56.561ZM360.111,80.19C361.11,80.19 361.967,80.095 362.681,79.904C363.395,79.666 363.99,79.262 364.465,78.691C364.941,78.12 365.298,77.334 365.536,76.335C365.774,75.336 365.893,74.051 365.893,72.48C365.893,69.72 365.441,67.888 364.537,66.983C363.68,66.031 362.371,65.556 360.61,65.556L358.183,65.556C357.707,65.556 357.469,65.746 357.469,66.127L357.469,79.69C357.469,80.023 357.707,80.19 358.183,80.19L360.111,80.19Z" style="fill:white;fill-rule:nonzero;"/>
    <path d="M406.299,76.549C405.537,76.454 404.752,76.383 403.943,76.335C403.181,76.287 402.42,76.264 401.658,76.264C401.182,76.264 400.611,76.287 399.945,76.335C399.326,76.383 398.755,76.478 398.232,76.621C397.994,76.668 397.875,76.906 397.875,77.334L397.875,104.39C397.875,104.866 397.613,105.104 397.09,105.104L385.882,105.104C385.406,105.104 385.168,104.866 385.168,104.39L385.168,68.482C385.168,68.054 385.406,67.792 385.882,67.697C387.976,67.316 390.26,66.983 392.735,66.698C395.21,66.365 397.732,66.198 400.302,66.198C401.539,66.198 402.634,66.222 403.586,66.269C404.585,66.317 405.656,66.388 406.798,66.484C406.989,66.531 407.084,66.698 407.084,66.983L406.727,76.192C406.727,76.478 406.584,76.597 406.299,76.549Z" style="fill:white;fill-rule:nonzero;"/>
    <path d="M422.218,85.473C422.218,87.662 422.337,89.637 422.575,91.398C422.861,93.111 423.265,94.301 423.789,94.967C424.122,95.443 424.55,95.776 425.074,95.967C425.597,96.157 426.406,96.252 427.501,96.252C428.691,96.252 429.547,96.157 430.071,95.967C430.594,95.776 431.023,95.443 431.356,94.967C431.832,94.301 432.212,93.111 432.498,91.398C432.783,89.637 432.926,87.662 432.926,85.473C432.926,83.331 432.783,81.499 432.498,79.976C432.212,78.453 431.832,77.358 431.356,76.692C431.023,76.216 430.594,75.883 430.071,75.693C429.547,75.502 428.738,75.407 427.644,75.407C426.454,75.407 425.597,75.502 425.074,75.693C424.55,75.883 424.122,76.216 423.789,76.692C423.265,77.358 422.861,78.453 422.575,79.976C422.337,81.499 422.218,83.331 422.218,85.473ZM445.776,85.687C445.776,89.256 445.324,92.492 444.42,95.396C443.515,98.299 442.302,100.488 440.779,101.963C439.399,103.343 437.638,104.343 435.496,104.962C433.402,105.533 430.737,105.818 427.501,105.818C424.265,105.818 421.623,105.533 419.577,104.962C417.53,104.343 415.817,103.343 414.437,101.963C412.914,100.488 411.676,98.299 410.725,95.396C409.82,92.492 409.368,89.256 409.368,85.687C409.368,82.07 409.82,78.905 410.725,76.192C411.676,73.48 412.914,71.386 414.437,69.91C415.817,68.53 417.554,67.578 419.648,67.055C421.79,66.484 424.455,66.198 427.644,66.198C430.927,66.198 433.593,66.484 435.639,67.055C437.685,67.578 439.399,68.53 440.779,69.91C442.302,71.386 443.515,73.48 444.42,76.192C445.324,78.905 445.776,82.07 445.776,85.687Z" style="fill:white;fill-rule:nonzero;"/>
    <path d="M477.187,104.747C476.044,105.128 474.688,105.39 473.118,105.533C471.595,105.723 470.072,105.818 468.549,105.818C465.455,105.818 462.838,105.39 460.696,104.533C458.554,103.677 456.817,102.439 455.485,100.821C454.152,99.155 453.177,97.109 452.558,94.682C451.987,92.207 451.701,89.399 451.701,86.258C451.701,83.212 451.987,80.452 452.558,77.977C453.129,75.502 454.057,73.384 455.342,71.623C456.627,69.863 458.316,68.53 460.411,67.626C462.552,66.674 465.17,66.198 468.263,66.198C469.929,66.198 471.547,66.293 473.118,66.484C474.688,66.626 475.878,66.84 476.687,67.126C476.972,67.221 477.115,67.435 477.115,67.769L476.687,76.335C476.687,76.43 476.639,76.525 476.544,76.621C476.497,76.716 476.378,76.74 476.187,76.692C474.569,76.311 472.999,76.121 471.476,76.121C470.286,76.121 469.263,76.264 468.406,76.549C467.597,76.787 466.931,77.287 466.407,78.048C465.931,78.81 465.574,79.857 465.336,81.189C465.146,82.474 465.051,84.188 465.051,86.329C465.051,88.233 465.146,89.804 465.336,91.041C465.527,92.231 465.86,93.183 466.336,93.896C466.859,94.563 467.549,95.039 468.406,95.324C469.263,95.562 470.333,95.681 471.618,95.681C472.427,95.681 473.26,95.634 474.117,95.538C474.974,95.443 475.759,95.324 476.473,95.181C476.616,95.134 476.758,95.134 476.901,95.181C477.044,95.181 477.139,95.277 477.187,95.467L477.544,104.176C477.544,104.509 477.425,104.7 477.187,104.747Z" style="fill:white;fill-rule:nonzero;"/>
    <path d="M493.463,82.26C493.463,82.546 493.606,82.689 493.891,82.689L503.529,82.689C503.767,82.689 503.957,82.617 504.1,82.474C504.243,82.284 504.314,81.832 504.314,81.118C504.314,80.119 504.266,79.214 504.171,78.405C504.076,77.596 503.838,76.906 503.457,76.335C503.124,75.764 502.624,75.312 501.958,74.979C501.292,74.646 500.388,74.479 499.245,74.479C498.008,74.479 497.009,74.693 496.247,75.121C495.486,75.502 494.891,76.05 494.462,76.763C494.082,77.43 493.82,78.239 493.677,79.191C493.534,80.142 493.463,81.166 493.463,82.26ZM513.809,103.748C512.619,104.271 510.81,104.747 508.383,105.176C505.956,105.604 503.386,105.818 500.673,105.818C493.868,105.818 488.918,104.271 485.825,101.178C482.731,98.037 481.184,93.04 481.184,86.187C481.184,82.522 481.613,79.429 482.469,76.906C483.326,74.336 484.54,72.266 486.11,70.695C487.728,69.125 489.656,67.983 491.892,67.269C494.177,66.555 496.723,66.198 499.531,66.198C505.099,66.198 509.073,67.507 511.453,70.124C513.832,72.742 515.022,76.906 515.022,82.617C515.022,83.331 514.975,84.188 514.879,85.187C514.832,86.139 514.76,86.996 514.665,87.757C514.57,88.519 514.403,89.018 514.165,89.256C513.927,89.447 513.547,89.542 513.023,89.542L494.248,89.542C493.963,89.542 493.82,89.661 493.82,89.899C493.82,92.469 494.486,94.23 495.819,95.181C497.199,96.086 499.245,96.538 501.958,96.538C503.481,96.538 505.099,96.443 506.813,96.252C508.526,96.062 510.453,95.729 512.595,95.253C513.071,95.11 513.356,95.205 513.452,95.538L514.237,103.105C514.237,103.439 514.094,103.653 513.809,103.748Z" style="fill:white;fill-rule:nonzero;"/>
    <path d="M520.805,104.89C520.519,104.795 520.376,104.605 520.376,104.319L520.733,95.895C520.733,95.8 520.805,95.705 520.947,95.61C521.09,95.515 521.233,95.491 521.376,95.538C521.899,95.681 522.518,95.8 523.232,95.895C523.993,95.99 524.755,96.086 525.516,96.181C526.325,96.228 527.11,96.276 527.872,96.324C528.681,96.371 529.395,96.395 530.014,96.395C531.774,96.395 532.893,96.252 533.369,95.967C533.892,95.681 534.154,94.943 534.154,93.754C534.154,93.421 534.083,93.111 533.94,92.826C533.797,92.492 533.488,92.136 533.012,91.755C532.583,91.374 531.965,90.922 531.156,90.398C530.347,89.827 529.276,89.137 527.943,88.328C526.516,87.472 525.326,86.662 524.374,85.901C523.422,85.14 522.661,84.354 522.089,83.545C521.518,82.736 521.114,81.856 520.876,80.904C520.638,79.952 520.519,78.834 520.519,77.549C520.519,75.312 520.852,73.48 521.518,72.052C522.232,70.576 523.208,69.41 524.445,68.554C525.73,67.697 527.277,67.102 529.085,66.769C530.894,66.388 532.94,66.198 535.225,66.198C536.129,66.198 537.129,66.246 538.223,66.341C539.318,66.388 540.389,66.46 541.436,66.555C542.483,66.65 543.458,66.769 544.362,66.912C545.314,67.055 546.1,67.197 546.718,67.34C546.956,67.435 547.075,67.602 547.075,67.84L546.504,76.406C546.504,76.692 546.338,76.787 546.004,76.692C544.719,76.502 543.315,76.335 541.792,76.192C540.27,76.002 539.104,75.907 538.295,75.907C536.486,75.907 535.272,76.026 534.654,76.264C534.035,76.502 533.726,77.097 533.726,78.048C533.726,78.477 533.773,78.834 533.868,79.119C534.011,79.405 534.297,79.738 534.725,80.119C535.153,80.452 535.748,80.88 536.51,81.404C537.319,81.88 538.39,82.498 539.722,83.26C541.388,84.212 542.721,85.092 543.72,85.901C544.767,86.71 545.576,87.543 546.147,88.4C546.718,89.209 547.099,90.089 547.289,91.041C547.48,91.945 547.575,92.992 547.575,94.182C547.575,96.704 547.17,98.751 546.361,100.321C545.6,101.844 544.505,103.01 543.077,103.819C541.697,104.628 540.055,105.152 538.152,105.39C536.248,105.675 534.178,105.818 531.941,105.818C529.514,105.818 527.348,105.723 525.445,105.533C523.589,105.39 522.042,105.176 520.805,104.89Z" style="fill:white;fill-rule:nonzero;"/>
    <path d="M552.643,104.89C552.358,104.795 552.215,104.605 552.215,104.319L552.572,95.895C552.572,95.8 552.643,95.705 552.786,95.61C552.929,95.515 553.072,95.491 553.215,95.538C553.738,95.681 554.357,95.8 555.071,95.895C555.832,95.99 556.594,96.086 557.355,96.181C558.164,96.228 558.949,96.276 559.711,96.324C560.52,96.371 561.234,96.395 561.852,96.395C563.613,96.395 564.732,96.252 565.208,95.967C565.731,95.681 565.993,94.943 565.993,93.754C565.993,93.421 565.922,93.111 565.779,92.826C565.636,92.492 565.327,92.136 564.851,91.755C564.422,91.374 563.804,90.922 562.995,90.398C562.186,89.827 561.115,89.137 559.782,88.328C558.354,87.472 557.165,86.662 556.213,85.901C555.261,85.14 554.5,84.354 553.928,83.545C553.357,82.736 552.953,81.856 552.715,80.904C552.477,79.952 552.358,78.834 552.358,77.549C552.358,75.312 552.691,73.48 553.357,72.052C554.071,70.576 555.047,69.41 556.284,68.554C557.569,67.697 559.116,67.102 560.924,66.769C562.733,66.388 564.779,66.198 567.064,66.198C567.968,66.198 568.967,66.246 570.062,66.341C571.157,66.388 572.227,66.46 573.274,66.555C574.321,66.65 575.297,66.769 576.201,66.912C577.153,67.055 577.938,67.197 578.557,67.34C578.795,67.435 578.914,67.602 578.914,67.84L578.343,76.406C578.343,76.692 578.176,76.787 577.843,76.692C576.558,76.502 575.154,76.335 573.631,76.192C572.108,76.002 570.942,75.907 570.133,75.907C568.325,75.907 567.111,76.026 566.493,76.264C565.874,76.502 565.565,77.097 565.565,78.048C565.565,78.477 565.612,78.834 565.707,79.119C565.85,79.405 566.136,79.738 566.564,80.119C566.992,80.452 567.587,80.88 568.349,81.404C569.158,81.88 570.229,82.498 571.561,83.26C573.227,84.212 574.559,85.092 575.559,85.901C576.606,86.71 577.415,87.543 577.986,88.4C578.557,89.209 578.938,90.089 579.128,91.041C579.319,91.945 579.414,92.992 579.414,94.182C579.414,96.704 579.009,98.751 578.2,100.321C577.439,101.844 576.344,103.01 574.916,103.819C573.536,104.628 571.894,105.152 569.991,105.39C568.087,105.675 566.017,105.818 563.78,105.818C561.353,105.818 559.187,105.723 557.284,105.533C555.428,105.39 553.881,105.176 552.643,104.89Z" style="fill:white;fill-rule:nonzero;"/>
    <path d="M600.171,54.501C600.029,54.586 599.958,54.685 599.958,54.799C599.958,54.941 600.043,55.012 600.213,55.012C603.082,55.012 605.141,55.651 606.39,56.929C607.64,58.207 608.264,60.152 608.264,62.765C608.264,64.668 607.966,66.23 607.37,67.451C606.802,68.644 605.992,69.581 604.942,70.262C603.891,70.944 602.641,71.398 601.193,71.625C599.745,71.881 598.154,72.009 596.422,72.009C595.343,72.009 594.15,71.938 592.844,71.796C591.566,71.654 590.33,71.469 589.138,71.242C588.854,71.214 588.712,71.072 588.712,70.816L589.138,65.534C589.138,65.335 589.28,65.236 589.564,65.236C589.961,65.321 590.416,65.392 590.927,65.449C591.438,65.505 591.949,65.562 592.46,65.619C592.972,65.647 593.468,65.676 593.951,65.704C594.462,65.733 594.888,65.747 595.229,65.747C596.081,65.747 596.82,65.718 597.444,65.662C598.098,65.576 598.623,65.42 599.021,65.193C599.446,64.937 599.759,64.582 599.958,64.128C600.156,63.674 600.256,63.063 600.256,62.296C600.256,61.7 600.128,61.203 599.872,60.805C599.645,60.408 599.248,60.11 598.68,59.911C598.112,59.684 597.331,59.527 596.337,59.442C595.371,59.357 594.164,59.314 592.716,59.314L591.012,59.314C590.728,59.314 590.586,59.201 590.586,58.974L590.586,55.225C590.586,55.083 590.6,54.969 590.629,54.884C590.685,54.771 590.827,54.643 591.055,54.501C593.383,52.882 595.144,51.618 596.337,50.71C597.558,49.772 598.169,49.19 598.169,48.963C598.169,48.821 598.069,48.75 597.87,48.75L589.308,48.75C589.052,48.75 588.925,48.608 588.925,48.324L588.925,43.042C588.925,42.758 589.067,42.616 589.351,42.616L607.285,42.616C607.569,42.616 607.711,42.715 607.711,42.914L607.711,48.324C607.711,48.438 607.682,48.551 607.625,48.665C607.597,48.778 607.469,48.935 607.242,49.133C606.333,49.957 605.325,50.781 604.218,51.604C603.138,52.428 601.789,53.393 600.171,54.501Z" style="fill:rgb(255,133,82);fill-rule:nonzero;"/>
    <path d="M177.666,139.311C177.642,139.147 177.549,139.066 177.385,139.066L169.564,139.066C169.353,139.066 169.236,139.147 169.213,139.311L167.67,145.169C167.576,145.402 167.424,145.519 167.214,145.519L164.443,145.519C164.209,145.519 164.127,145.402 164.197,145.169C164.361,144.467 164.606,143.52 164.934,142.328C165.261,141.112 165.624,139.779 166.021,138.329C166.442,136.879 166.875,135.359 167.319,133.769C167.786,132.179 168.231,130.648 168.652,129.174C169.096,127.678 169.493,126.31 169.844,125.071C170.218,123.808 170.534,122.791 170.791,122.019C170.861,121.785 171.002,121.669 171.212,121.669L176.193,121.669C176.403,121.669 176.543,121.785 176.614,122.019C176.871,122.884 177.186,123.995 177.561,125.351C177.935,126.684 178.332,128.122 178.753,129.666C179.197,131.209 179.63,132.787 180.051,134.401C180.495,136.014 180.904,137.534 181.279,138.96C181.676,140.387 182.015,141.649 182.296,142.748C182.576,143.847 182.787,144.654 182.927,145.169C182.997,145.402 182.915,145.519 182.682,145.519L179.56,145.519C179.303,145.519 179.151,145.402 179.104,145.169L177.666,139.311ZM176.789,136.4C176.953,136.4 177.034,136.318 177.034,136.154C176.918,135.64 176.742,134.915 176.508,133.98C176.298,133.021 176.052,131.992 175.772,130.893C175.515,129.794 175.246,128.695 174.965,127.596C174.684,126.497 174.439,125.538 174.229,124.72C174.205,124.58 173.995,124.51 173.597,124.51C173.2,124.51 172.989,124.58 172.966,124.72C172.732,125.538 172.463,126.497 172.159,127.596C171.879,128.695 171.598,129.794 171.317,130.893C171.037,131.992 170.78,133.021 170.546,133.98C170.312,134.915 170.136,135.64 170.02,136.154C170.02,136.318 170.101,136.4 170.265,136.4L176.789,136.4Z" style="fill:rgb(207,207,207);fill-rule:nonzero;"/>
    <path d="M188.82,126.754C189.053,126.754 189.17,126.871 189.17,127.105L189.17,138.925C189.17,139.744 189.229,140.433 189.346,140.995C189.486,141.532 189.72,141.965 190.047,142.292C190.375,142.62 190.819,142.854 191.38,142.994C191.941,143.111 192.666,143.169 193.555,143.169C194.092,143.169 194.607,143.146 195.098,143.099C195.612,143.052 196.068,142.982 196.466,142.889C196.7,142.819 196.817,142.69 196.817,142.503L196.817,127.105C196.817,126.871 196.934,126.754 197.167,126.754L199.833,126.754C200.067,126.754 200.184,126.871 200.184,127.105L200.184,144.783C200.184,144.97 200.067,145.087 199.833,145.133C199.365,145.227 198.851,145.321 198.29,145.414C197.752,145.508 197.202,145.589 196.641,145.66C196.08,145.73 195.531,145.777 194.993,145.8C194.478,145.847 194.011,145.87 193.59,145.87C192.046,145.87 190.772,145.765 189.767,145.554C188.761,145.344 187.966,144.993 187.382,144.502C186.797,143.988 186.388,143.31 186.154,142.468C185.92,141.626 185.803,140.562 185.803,139.276L185.803,127.105C185.803,126.871 185.92,126.754 186.154,126.754L188.82,126.754Z" style="fill:rgb(207,207,207);fill-rule:nonzero;"/>
    <path d="M213.302,145.589C212.928,145.66 212.53,145.718 212.109,145.765C211.688,145.835 211.267,145.87 210.847,145.87C209.514,145.87 208.532,145.554 207.9,144.923C207.292,144.268 206.988,143.38 206.988,142.257L206.988,129.56C206.988,129.42 206.918,129.35 206.778,129.35L203.972,129.35C203.738,129.35 203.621,129.233 203.621,128.999L203.621,127.105C203.621,126.871 203.738,126.754 203.972,126.754L206.778,126.754C206.918,126.754 206.988,126.684 206.988,126.544L206.988,122.16C206.988,121.926 207.105,121.809 207.339,121.809L210.005,121.809C210.239,121.809 210.355,121.926 210.355,122.16L210.355,126.544C210.355,126.684 210.426,126.754 210.566,126.754L213.863,126.754C214.097,126.754 214.214,126.871 214.214,127.105L214.214,128.999C214.214,129.233 214.097,129.35 213.863,129.35L210.566,129.35C210.426,129.35 210.355,129.42 210.355,129.56L210.355,141.836C210.355,142.374 210.472,142.76 210.706,142.994C210.94,143.204 211.338,143.31 211.899,143.31L213.337,143.31C213.571,143.31 213.688,143.427 213.688,143.66L213.617,145.133C213.617,145.391 213.512,145.543 213.302,145.589Z" style="fill:rgb(207,207,207);fill-rule:nonzero;"/>
    <path d="M220.352,135.979C220.352,136.704 220.375,137.405 220.422,138.083C220.492,138.738 220.574,139.346 220.667,139.907C220.784,140.469 220.925,140.971 221.088,141.416C221.252,141.836 221.439,142.164 221.65,142.398C221.93,142.702 222.293,142.924 222.737,143.064C223.181,143.181 223.859,143.239 224.771,143.239C225.73,143.239 226.431,143.181 226.876,143.064C227.32,142.924 227.671,142.702 227.928,142.398C228.138,142.164 228.325,141.836 228.489,141.416C228.653,140.971 228.781,140.469 228.875,139.907C228.992,139.346 229.074,138.738 229.12,138.083C229.191,137.405 229.226,136.704 229.226,135.979C229.226,134.506 229.12,133.231 228.91,132.156C228.7,131.08 228.372,130.309 227.928,129.841C227.671,129.537 227.32,129.326 226.876,129.21C226.455,129.069 225.777,128.999 224.841,128.999C223.883,128.999 223.181,129.069 222.737,129.21C222.293,129.326 221.93,129.537 221.65,129.841C221.205,130.309 220.878,131.08 220.667,132.156C220.457,133.231 220.352,134.506 220.352,135.979ZM232.663,135.979C232.663,137.733 232.464,139.323 232.067,140.749C231.669,142.152 231.155,143.228 230.523,143.976C229.915,144.654 229.156,145.145 228.244,145.449C227.332,145.73 226.174,145.87 224.771,145.87C223.368,145.87 222.222,145.73 221.334,145.449C220.469,145.145 219.732,144.654 219.124,143.976C218.493,143.228 217.967,142.152 217.546,140.749C217.125,139.323 216.914,137.733 216.914,135.979C216.914,134.202 217.113,132.647 217.511,131.314C217.932,129.981 218.469,128.952 219.124,128.227C219.732,127.549 220.492,127.082 221.404,126.824C222.316,126.544 223.462,126.404 224.841,126.404C226.244,126.404 227.39,126.544 228.279,126.824C229.167,127.082 229.915,127.549 230.523,128.227C231.155,128.976 231.669,130.016 232.067,131.349C232.464,132.659 232.663,134.202 232.663,135.979Z" style="fill:rgb(207,207,207);fill-rule:nonzero;"/>
    <path d="M251.709,145.169C251.709,145.402 251.592,145.519 251.358,145.519L248.692,145.519C248.458,145.519 248.341,145.402 248.341,145.169L248.341,131.104C248.341,130.262 248.014,129.701 247.359,129.42C246.705,129.139 245.874,128.999 244.869,128.999C244.284,128.999 243.665,129.023 243.01,129.069C242.355,129.116 241.829,129.186 241.432,129.28C241.198,129.35 241.081,129.478 241.081,129.666L241.081,145.169C241.081,145.402 240.964,145.519 240.73,145.519L238.064,145.519C237.831,145.519 237.714,145.402 237.714,145.169L237.714,127.491C237.714,127.304 237.831,127.187 238.064,127.14C238.345,127.07 238.766,127 239.327,126.93C239.888,126.836 240.496,126.754 241.151,126.684C241.806,126.614 242.461,126.556 243.115,126.509C243.793,126.439 244.39,126.404 244.904,126.404C245.933,126.404 246.892,126.462 247.78,126.579C248.669,126.673 249.417,126.918 250.025,127.316C250.119,127.362 250.212,127.362 250.306,127.316C251.241,126.965 252.235,126.731 253.287,126.614C254.363,126.474 255.333,126.404 256.198,126.404C257.461,126.404 258.513,126.556 259.355,126.86C260.197,127.164 260.875,127.584 261.389,128.122C261.904,128.637 262.266,129.256 262.476,129.981C262.687,130.706 262.792,131.501 262.792,132.366L262.792,145.169C262.792,145.402 262.675,145.519 262.441,145.519L259.776,145.519C259.542,145.519 259.425,145.402 259.425,145.169L259.425,132.822C259.425,131.419 259.086,130.437 258.408,129.876C257.753,129.291 256.736,128.999 255.356,128.999C254.842,128.999 254.269,129.023 253.638,129.069C253.03,129.116 252.527,129.186 252.129,129.28C251.849,129.35 251.709,129.478 251.709,129.666L251.709,145.169Z" style="fill:rgb(207,207,207);fill-rule:nonzero;"/>
    <path d="M273.735,129.104C273.104,129.104 272.403,129.139 271.631,129.21C270.883,129.256 270.228,129.326 269.667,129.42C269.55,129.443 269.433,129.455 269.316,129.455C269.223,129.432 269.164,129.362 269.141,129.245L268.895,127.526C268.848,127.269 268.919,127.105 269.106,127.035C269.784,126.848 270.555,126.696 271.421,126.579C272.309,126.462 273.35,126.404 274.542,126.404C276.74,126.404 278.389,126.848 279.488,127.736C280.587,128.602 281.136,130.063 281.136,132.121L281.136,144.748C281.136,144.865 281.101,144.97 281.031,145.063C280.984,145.133 280.867,145.204 280.68,145.274C280.189,145.437 279.441,145.578 278.435,145.695C277.453,145.812 276.366,145.87 275.174,145.87C273.654,145.87 272.379,145.788 271.35,145.625C270.345,145.461 269.538,145.18 268.93,144.783C268.346,144.385 267.925,143.871 267.668,143.239C267.434,142.585 267.317,141.778 267.317,140.819C267.317,139.978 267.387,139.229 267.527,138.575C267.668,137.92 267.948,137.359 268.369,136.891C268.79,136.4 269.386,136.002 270.158,135.698C270.953,135.394 271.993,135.161 273.28,134.997L277.664,134.471C277.804,134.447 277.874,134.377 277.874,134.26L277.874,132.472C277.874,131.793 277.792,131.244 277.629,130.823C277.488,130.379 277.255,130.028 276.927,129.771C276.6,129.514 276.167,129.338 275.63,129.245C275.115,129.151 274.484,129.104 273.735,129.104ZM277.874,137.172C277.874,137.031 277.804,136.961 277.664,136.961L274.472,136.961C273.724,136.961 273.104,137.008 272.613,137.101C272.145,137.195 271.771,137.37 271.491,137.628C271.21,137.885 271.011,138.235 270.894,138.68C270.801,139.124 270.754,139.697 270.754,140.398C270.754,141.1 270.801,141.661 270.894,142.082C270.988,142.48 271.187,142.783 271.491,142.994C271.795,143.204 272.204,143.345 272.718,143.415C273.256,143.485 273.969,143.52 274.858,143.52C275.349,143.52 275.852,143.508 276.366,143.485C276.904,143.438 277.301,143.38 277.559,143.31C277.699,143.263 277.781,143.228 277.804,143.204C277.851,143.158 277.874,143.111 277.874,143.064L277.874,137.172Z" style="fill:rgb(207,207,207);fill-rule:nonzero;"/>
    <path d="M294.219,145.589C293.845,145.66 293.447,145.718 293.027,145.765C292.606,145.835 292.185,145.87 291.764,145.87C290.431,145.87 289.449,145.554 288.818,144.923C288.21,144.268 287.906,143.38 287.906,142.257L287.906,129.56C287.906,129.42 287.836,129.35 287.695,129.35L284.889,129.35C284.655,129.35 284.538,129.233 284.538,128.999L284.538,127.105C284.538,126.871 284.655,126.754 284.889,126.754L287.695,126.754C287.836,126.754 287.906,126.684 287.906,126.544L287.906,122.16C287.906,121.926 288.023,121.809 288.256,121.809L290.922,121.809C291.156,121.809 291.273,121.926 291.273,122.16L291.273,126.544C291.273,126.684 291.343,126.754 291.483,126.754L294.78,126.754C295.014,126.754 295.131,126.871 295.131,127.105L295.131,128.999C295.131,129.233 295.014,129.35 294.78,129.35L291.483,129.35C291.343,129.35 291.273,129.42 291.273,129.56L291.273,141.836C291.273,142.374 291.39,142.76 291.624,142.994C291.857,143.204 292.255,143.31 292.816,143.31L294.254,143.31C294.488,143.31 294.605,143.427 294.605,143.66L294.535,145.133C294.535,145.391 294.43,145.543 294.219,145.589Z" style="fill:rgb(207,207,207);fill-rule:nonzero;"/>
    <path d="M299.024,145.519C298.791,145.519 298.674,145.402 298.674,145.169L298.674,127.105C298.674,126.871 298.791,126.754 299.024,126.754L301.69,126.754C301.924,126.754 302.041,126.871 302.041,127.105L302.041,145.169C302.041,145.402 301.924,145.519 301.69,145.519L299.024,145.519ZM298.884,123.071C298.65,123.071 298.533,122.955 298.533,122.721L298.533,119.774C298.533,119.541 298.65,119.424 298.884,119.424L301.865,119.424C302.099,119.424 302.216,119.541 302.216,119.774L302.216,122.721C302.216,122.955 302.099,123.071 301.865,123.071L298.884,123.071Z" style="fill:rgb(207,207,207);fill-rule:nonzero;"/>
    <path d="M310.704,135.979C310.704,136.704 310.728,137.405 310.774,138.083C310.845,138.738 310.926,139.346 311.02,139.907C311.137,140.469 311.277,140.971 311.441,141.416C311.604,141.836 311.792,142.164 312.002,142.398C312.283,142.702 312.645,142.924 313.089,143.064C313.534,143.181 314.212,143.239 315.124,143.239C316.082,143.239 316.784,143.181 317.228,143.064C317.672,142.924 318.023,142.702 318.28,142.398C318.491,142.164 318.678,141.836 318.842,141.416C319.005,140.971 319.134,140.469 319.227,139.907C319.344,139.346 319.426,138.738 319.473,138.083C319.543,137.405 319.578,136.704 319.578,135.979C319.578,134.506 319.473,133.231 319.262,132.156C319.052,131.08 318.725,130.309 318.28,129.841C318.023,129.537 317.672,129.326 317.228,129.21C316.807,129.069 316.129,128.999 315.194,128.999C314.235,128.999 313.534,129.069 313.089,129.21C312.645,129.326 312.283,129.537 312.002,129.841C311.558,130.309 311.23,131.08 311.02,132.156C310.809,133.231 310.704,134.506 310.704,135.979ZM323.015,135.979C323.015,137.733 322.817,139.323 322.419,140.749C322.022,142.152 321.507,143.228 320.876,143.976C320.268,144.654 319.508,145.145 318.596,145.449C317.684,145.73 316.527,145.87 315.124,145.87C313.721,145.87 312.575,145.73 311.686,145.449C310.821,145.145 310.085,144.654 309.477,143.976C308.845,143.228 308.319,142.152 307.898,140.749C307.477,139.323 307.267,137.733 307.267,135.979C307.267,134.202 307.466,132.647 307.863,131.314C308.284,129.981 308.822,128.952 309.477,128.227C310.085,127.549 310.845,127.082 311.756,126.824C312.668,126.544 313.814,126.404 315.194,126.404C316.597,126.404 317.743,126.544 318.631,126.824C319.52,127.082 320.268,127.549 320.876,128.227C321.507,128.976 322.022,130.016 322.419,131.349C322.817,132.659 323.015,134.202 323.015,135.979Z" style="fill:rgb(207,207,207);fill-rule:nonzero;"/>
    <path d="M339.43,145.519C339.197,145.519 339.08,145.402 339.08,145.169L339.08,133.103C339.08,132.284 339.021,131.606 338.904,131.069C338.811,130.531 338.612,130.11 338.308,129.806C338.004,129.502 337.571,129.291 337.01,129.174C336.472,129.058 335.759,128.999 334.871,128.999C333.631,128.999 332.603,129.093 331.784,129.28C331.55,129.35 331.433,129.478 331.433,129.666L331.433,145.169C331.433,145.402 331.316,145.519 331.083,145.519L328.417,145.519C328.183,145.519 328.066,145.402 328.066,145.169L328.066,127.491C328.066,127.304 328.183,127.187 328.417,127.14C328.885,127.047 329.399,126.965 329.96,126.895C330.545,126.801 331.118,126.719 331.679,126.649C332.263,126.579 332.825,126.521 333.362,126.474C333.924,126.427 334.426,126.404 334.871,126.404C336.414,126.404 337.677,126.497 338.659,126.684C339.641,126.871 340.412,127.21 340.974,127.701C341.535,128.192 341.921,128.859 342.131,129.701C342.342,130.519 342.447,131.571 342.447,132.857L342.447,145.169C342.447,145.402 342.33,145.519 342.096,145.519L339.43,145.519Z" style="fill:rgb(207,207,207);fill-rule:nonzero;"/>
    <path d="M368.963,145.169C368.963,145.402 368.846,145.519 368.613,145.519L365.947,145.519C365.713,145.519 365.596,145.402 365.596,145.169L365.596,131.104C365.596,130.262 365.269,129.701 364.614,129.42C363.959,129.139 363.129,128.999 362.124,128.999C361.539,128.999 360.92,129.023 360.265,129.069C359.61,129.116 359.084,129.186 358.686,129.28C358.453,129.35 358.336,129.478 358.336,129.666L358.336,145.169C358.336,145.402 358.219,145.519 357.985,145.519L355.319,145.519C355.085,145.519 354.969,145.402 354.969,145.169L354.969,127.491C354.969,127.304 355.085,127.187 355.319,127.14C355.6,127.07 356.021,127 356.582,126.93C357.143,126.836 357.751,126.754 358.406,126.684C359.061,126.614 359.715,126.556 360.37,126.509C361.048,126.439 361.644,126.404 362.159,126.404C363.188,126.404 364.146,126.462 365.035,126.579C365.924,126.673 366.672,126.918 367.28,127.316C367.373,127.362 367.467,127.362 367.56,127.316C368.496,126.965 369.489,126.731 370.542,126.614C371.617,126.474 372.588,126.404 373.453,126.404C374.716,126.404 375.768,126.556 376.61,126.86C377.451,127.164 378.13,127.584 378.644,128.122C379.158,128.637 379.521,129.256 379.731,129.981C379.942,130.706 380.047,131.501 380.047,132.366L380.047,145.169C380.047,145.402 379.93,145.519 379.696,145.519L377.03,145.519C376.797,145.519 376.68,145.402 376.68,145.169L376.68,132.822C376.68,131.419 376.341,130.437 375.663,129.876C375.008,129.291 373.991,128.999 372.611,128.999C372.097,128.999 371.524,129.023 370.892,129.069C370.284,129.116 369.782,129.186 369.384,129.28C369.104,129.35 368.963,129.478 368.963,129.666L368.963,145.169Z" style="fill:rgb(207,207,207);fill-rule:nonzero;"/>
    <path d="M390.99,129.104C390.359,129.104 389.657,129.139 388.886,129.21C388.137,129.256 387.483,129.326 386.922,129.42C386.805,129.443 386.688,129.455 386.571,129.455C386.477,129.432 386.419,129.362 386.395,129.245L386.15,127.526C386.103,127.269 386.173,127.105 386.36,127.035C387.038,126.848 387.81,126.696 388.675,126.579C389.564,126.462 390.604,126.404 391.797,126.404C393.995,126.404 395.643,126.848 396.742,127.736C397.841,128.602 398.391,130.063 398.391,132.121L398.391,144.748C398.391,144.865 398.356,144.97 398.286,145.063C398.239,145.133 398.122,145.204 397.935,145.274C397.444,145.437 396.696,145.578 395.69,145.695C394.708,145.812 393.621,145.87 392.428,145.87C390.908,145.87 389.634,145.788 388.605,145.625C387.6,145.461 386.793,145.18 386.185,144.783C385.6,144.385 385.18,143.871 384.922,143.239C384.688,142.585 384.572,141.778 384.572,140.819C384.572,139.978 384.642,139.229 384.782,138.575C384.922,137.92 385.203,137.359 385.624,136.891C386.045,136.4 386.641,136.002 387.413,135.698C388.208,135.394 389.248,135.161 390.534,134.997L394.919,134.471C395.059,134.447 395.129,134.377 395.129,134.26L395.129,132.472C395.129,131.793 395.047,131.244 394.884,130.823C394.743,130.379 394.509,130.028 394.182,129.771C393.855,129.514 393.422,129.338 392.884,129.245C392.37,129.151 391.738,129.104 390.99,129.104ZM395.129,137.172C395.129,137.031 395.059,136.961 394.919,136.961L391.727,136.961C390.979,136.961 390.359,137.008 389.868,137.101C389.4,137.195 389.026,137.37 388.745,137.628C388.465,137.885 388.266,138.235 388.149,138.68C388.056,139.124 388.009,139.697 388.009,140.398C388.009,141.1 388.056,141.661 388.149,142.082C388.243,142.48 388.441,142.783 388.745,142.994C389.049,143.204 389.459,143.345 389.973,143.415C390.511,143.485 391.224,143.52 392.113,143.52C392.604,143.52 393.106,143.508 393.621,143.485C394.159,143.438 394.556,143.38 394.813,143.31C394.954,143.263 395.036,143.228 395.059,143.204C395.106,143.158 395.129,143.111 395.129,143.064L395.129,137.172Z" style="fill:rgb(207,207,207);fill-rule:nonzero;"/>
    <path d="M412.175,145.87C410.445,145.87 409.019,145.695 407.896,145.344C406.774,144.97 405.885,144.385 405.231,143.59C404.576,142.795 404.12,141.766 403.863,140.504C403.605,139.241 403.477,137.709 403.477,135.909C403.477,132.565 404.143,130.145 405.476,128.648C406.832,127.152 409.007,126.404 412,126.404C412.608,126.404 413.157,126.45 413.648,126.544C414.163,126.614 414.525,126.649 414.736,126.649C414.899,126.649 414.981,126.544 414.981,126.333L414.981,120.09C414.981,119.856 415.098,119.739 415.332,119.739L417.998,119.739C418.232,119.739 418.349,119.856 418.349,120.09L418.349,144.713C418.349,144.923 418.232,145.063 417.998,145.133C417.273,145.321 416.419,145.484 415.437,145.625C414.455,145.788 413.368,145.87 412.175,145.87ZM414.981,129.736C414.981,129.525 414.899,129.385 414.736,129.315C414.479,129.221 414.093,129.151 413.578,129.104C413.064,129.034 412.561,128.999 412.07,128.999C411.111,128.999 410.305,129.093 409.65,129.28C408.995,129.443 408.469,129.771 408.072,130.262C407.674,130.753 407.393,131.454 407.23,132.366C407.066,133.255 406.984,134.436 406.984,135.909C406.984,137.359 407.031,138.563 407.125,139.522C407.242,140.48 407.475,141.24 407.826,141.801C408.2,142.363 408.726,142.76 409.404,142.994C410.106,143.204 411.03,143.31 412.175,143.31C412.573,143.31 413.005,143.298 413.473,143.275C413.964,143.251 414.362,143.181 414.666,143.064C414.806,143.017 414.888,142.959 414.911,142.889C414.958,142.819 414.981,142.748 414.981,142.678L414.981,129.736Z" style="fill:rgb(207,207,207);fill-rule:nonzero;"/>
    <path d="M426.872,134.541C426.872,134.705 426.942,134.786 427.082,134.786L434.869,134.786C435.032,134.786 435.138,134.728 435.184,134.611C435.255,134.494 435.29,134.143 435.29,133.559C435.29,131.992 434.997,130.835 434.413,130.086C433.852,129.315 432.811,128.929 431.291,128.929C430.403,128.929 429.666,129.069 429.081,129.35C428.52,129.63 428.076,130.028 427.749,130.542C427.421,131.033 427.187,131.63 427.047,132.331C426.93,133.009 426.872,133.746 426.872,134.541ZM437.675,144.853C436.131,145.531 434.249,145.87 432.028,145.87C430.274,145.87 428.836,145.613 427.713,145.098C426.614,144.584 425.738,143.894 425.083,143.029C424.451,142.14 424.007,141.1 423.75,139.907C423.516,138.715 423.399,137.452 423.399,136.119C423.399,134.74 423.528,133.454 423.785,132.261C424.066,131.069 424.51,130.04 425.118,129.174C425.749,128.309 426.568,127.631 427.573,127.14C428.579,126.649 429.818,126.404 431.291,126.404C432.741,126.404 433.922,126.614 434.834,127.035C435.769,127.432 436.494,127.994 437.008,128.719C437.546,129.443 437.908,130.309 438.096,131.314C438.306,132.296 438.411,133.372 438.411,134.541L438.411,135.523C438.411,136.225 438.329,136.692 438.166,136.926C438.025,137.136 437.803,137.242 437.499,137.242L427.082,137.242C426.942,137.242 426.872,137.324 426.872,137.487C426.872,138.656 427,139.615 427.257,140.363C427.515,141.112 427.889,141.708 428.38,142.152C428.894,142.573 429.514,142.865 430.239,143.029C430.964,143.193 431.794,143.275 432.729,143.275C433.548,143.275 434.366,143.181 435.184,142.994C436.026,142.807 436.716,142.596 437.254,142.363L437.359,142.363C437.382,142.339 437.406,142.328 437.429,142.328C437.593,142.328 437.71,142.398 437.78,142.538L437.92,144.397L437.92,144.502C437.92,144.666 437.838,144.783 437.675,144.853Z" style="fill:rgb(207,207,207);fill-rule:nonzero;"/>
    <path d="M453.248,134.541C453.248,134.705 453.318,134.786 453.458,134.786L461.245,134.786C461.409,134.786 461.514,134.728 461.561,134.611C461.631,134.494 461.666,134.143 461.666,133.559C461.666,131.992 461.373,130.835 460.789,130.086C460.228,129.315 459.187,128.929 457.667,128.929C456.779,128.929 456.042,129.069 455.458,129.35C454.896,129.63 454.452,130.028 454.125,130.542C453.797,131.033 453.564,131.63 453.423,132.331C453.306,133.009 453.248,133.746 453.248,134.541ZM464.051,144.853C462.508,145.531 460.625,145.87 458.404,145.87C456.65,145.87 455.212,145.613 454.09,145.098C452.991,144.584 452.114,143.894 451.459,143.029C450.828,142.14 450.383,141.1 450.126,139.907C449.892,138.715 449.775,137.452 449.775,136.119C449.775,134.74 449.904,133.454 450.161,132.261C450.442,131.069 450.886,130.04 451.494,129.174C452.125,128.309 452.944,127.631 453.949,127.14C454.955,126.649 456.194,126.404 457.667,126.404C459.117,126.404 460.298,126.614 461.21,127.035C462.145,127.432 462.87,127.994 463.384,128.719C463.922,129.443 464.285,130.309 464.472,131.314C464.682,132.296 464.787,133.372 464.787,134.541L464.787,135.523C464.787,136.225 464.706,136.692 464.542,136.926C464.402,137.136 464.179,137.242 463.875,137.242L453.458,137.242C453.318,137.242 453.248,137.324 453.248,137.487C453.248,138.656 453.376,139.615 453.634,140.363C453.891,141.112 454.265,141.708 454.756,142.152C455.27,142.573 455.89,142.865 456.615,143.029C457.34,143.193 458.17,143.275 459.105,143.275C459.924,143.275 460.742,143.181 461.561,142.994C462.402,142.807 463.092,142.596 463.63,142.363L463.735,142.363C463.759,142.339 463.782,142.328 463.805,142.328C463.969,142.328 464.086,142.398 464.156,142.538L464.296,144.397L464.296,144.502C464.296,144.666 464.215,144.783 464.051,144.853Z" style="fill:rgb(207,207,207);fill-rule:nonzero;"/>
    <path d="M475.064,129.104C474.433,129.104 473.731,129.139 472.96,129.21C472.212,129.256 471.557,129.326 470.996,129.42C470.879,129.443 470.762,129.455 470.645,129.455C470.551,129.432 470.493,129.362 470.47,129.245L470.224,127.526C470.177,127.269 470.247,127.105 470.434,127.035C471.113,126.848 471.884,126.696 472.749,126.579C473.638,126.462 474.678,126.404 475.871,126.404C478.069,126.404 479.718,126.848 480.817,127.736C481.916,128.602 482.465,130.063 482.465,132.121L482.465,144.748C482.465,144.865 482.43,144.97 482.36,145.063C482.313,145.133 482.196,145.204 482.009,145.274C481.518,145.437 480.77,145.578 479.764,145.695C478.782,145.812 477.695,145.87 476.502,145.87C474.982,145.87 473.708,145.788 472.679,145.625C471.674,145.461 470.867,145.18 470.259,144.783C469.674,144.385 469.254,143.871 468.996,143.239C468.763,142.585 468.646,141.778 468.646,140.819C468.646,139.978 468.716,139.229 468.856,138.575C468.996,137.92 469.277,137.359 469.698,136.891C470.119,136.4 470.715,136.002 471.487,135.698C472.282,135.394 473.322,135.161 474.608,134.997L478.993,134.471C479.133,134.447 479.203,134.377 479.203,134.26L479.203,132.472C479.203,131.793 479.121,131.244 478.958,130.823C478.817,130.379 478.583,130.028 478.256,129.771C477.929,129.514 477.496,129.338 476.958,129.245C476.444,129.151 475.813,129.104 475.064,129.104ZM479.203,137.172C479.203,137.031 479.133,136.961 478.993,136.961L475.801,136.961C475.053,136.961 474.433,137.008 473.942,137.101C473.474,137.195 473.1,137.37 472.82,137.628C472.539,137.885 472.34,138.235 472.223,138.68C472.13,139.124 472.083,139.697 472.083,140.398C472.083,141.1 472.13,141.661 472.223,142.082C472.317,142.48 472.516,142.783 472.82,142.994C473.124,143.204 473.533,143.345 474.047,143.415C474.585,143.485 475.298,143.52 476.187,143.52C476.678,143.52 477.18,143.508 477.695,143.485C478.233,143.438 478.63,143.38 478.887,143.31C479.028,143.263 479.11,143.228 479.133,143.204C479.18,143.158 479.203,143.111 479.203,143.064L479.203,137.172Z" style="fill:rgb(207,207,207);fill-rule:nonzero;"/>
    <path d="M491.655,145.87C490.836,145.87 489.994,145.835 489.129,145.765C488.287,145.718 487.598,145.636 487.06,145.519C486.92,145.473 486.849,145.391 486.849,145.274L486.99,143.029C486.99,142.889 487.083,142.842 487.27,142.889C487.878,143.006 488.521,143.099 489.199,143.169C489.878,143.216 490.509,143.239 491.093,143.239C491.842,143.239 492.45,143.216 492.917,143.169C493.385,143.099 493.736,142.982 493.97,142.819C494.227,142.631 494.39,142.374 494.461,142.047C494.554,141.72 494.601,141.275 494.601,140.714C494.601,140.387 494.542,140.094 494.426,139.837C494.332,139.557 494.145,139.276 493.864,138.995C493.607,138.691 493.245,138.364 492.777,138.013C492.309,137.639 491.713,137.195 490.988,136.68C490.263,136.166 489.644,135.71 489.129,135.313C488.638,134.915 488.229,134.529 487.902,134.155C487.598,133.758 487.376,133.348 487.235,132.927C487.095,132.507 487.025,132.016 487.025,131.454C487.025,129.654 487.481,128.368 488.393,127.596C489.328,126.801 490.941,126.404 493.233,126.404C494.893,126.404 496.226,126.497 497.232,126.684C497.372,126.731 497.442,126.813 497.442,126.93L497.302,129.174C497.302,129.315 497.208,129.362 497.021,129.315C496.553,129.245 496.016,129.174 495.408,129.104C494.8,129.034 494.203,128.999 493.619,128.999C492.964,128.999 492.415,129.023 491.97,129.069C491.526,129.093 491.164,129.174 490.883,129.315C490.626,129.455 490.439,129.666 490.322,129.946C490.205,130.227 490.146,130.613 490.146,131.104C490.146,131.501 490.193,131.84 490.287,132.121C490.404,132.401 490.602,132.682 490.883,132.963C491.164,133.243 491.538,133.547 492.005,133.875C492.473,134.202 493.069,134.599 493.794,135.067C494.542,135.558 495.174,136.026 495.688,136.47C496.203,136.914 496.612,137.347 496.916,137.768C497.243,138.189 497.465,138.633 497.582,139.101C497.723,139.545 497.793,140.024 497.793,140.539C497.793,141.568 497.676,142.433 497.442,143.134C497.208,143.812 496.834,144.362 496.32,144.783C495.829,145.18 495.197,145.461 494.426,145.625C493.654,145.788 492.73,145.87 491.655,145.87Z" style="fill:rgb(207,207,207);fill-rule:nonzero;"/>
    <path d="M507.403,145.274C507.403,145.18 507.228,145.133 506.877,145.133L506.035,145.133C505.755,145.133 505.544,145.087 505.404,144.993C505.287,144.9 505.205,144.794 505.158,144.678C504.901,143.976 504.597,143.111 504.246,142.082C503.919,141.03 503.58,139.919 503.229,138.75C502.879,137.557 502.516,136.353 502.142,135.137C501.791,133.898 501.464,132.752 501.16,131.7C500.879,130.624 500.634,129.677 500.423,128.859C500.213,128.04 500.073,127.444 500.002,127.07C500.002,126.86 500.108,126.754 500.318,126.754L503.229,126.754C503.393,126.754 503.498,126.86 503.545,127.07L504.106,129.49C504.363,130.589 504.632,131.747 504.913,132.963C505.217,134.178 505.509,135.371 505.79,136.54C506.094,137.686 506.386,138.773 506.667,139.802C506.971,140.831 507.24,141.708 507.473,142.433C507.497,142.573 507.66,142.643 507.964,142.643C508.128,142.643 508.245,142.631 508.315,142.608C508.385,142.585 508.444,142.515 508.491,142.398C508.771,141.556 509.075,140.492 509.402,139.206C509.753,137.92 510.092,136.564 510.42,135.137C510.77,133.711 511.109,132.296 511.437,130.893C511.764,129.467 512.056,128.192 512.314,127.07C512.337,126.86 512.501,126.754 512.805,126.754L515.435,126.754C515.622,126.754 515.716,126.871 515.716,127.105C515.646,127.479 515.494,128.111 515.26,128.999C515.049,129.864 514.781,130.87 514.453,132.016C514.126,133.161 513.775,134.377 513.401,135.663C513.05,136.949 512.688,138.2 512.314,139.416C511.94,140.609 511.589,141.72 511.261,142.748C510.957,143.777 510.7,144.596 510.49,145.204C510.045,146.513 509.59,147.589 509.122,148.431C508.678,149.272 508.163,149.95 507.579,150.465C506.994,150.979 506.328,151.33 505.579,151.517C504.831,151.728 503.931,151.833 502.879,151.833C502.247,151.833 501.803,151.798 501.546,151.728C501.288,151.681 501.148,151.54 501.125,151.307L501.055,149.904C501.078,149.717 501.113,149.6 501.16,149.553C501.23,149.506 501.347,149.483 501.511,149.483C502.423,149.483 503.183,149.436 503.79,149.342C504.398,149.272 504.913,149.109 505.334,148.851C505.755,148.594 506.105,148.232 506.386,147.764C506.69,147.296 506.982,146.677 507.263,145.905C507.333,145.718 507.368,145.589 507.368,145.519C507.391,145.426 507.403,145.344 507.403,145.274Z" style="fill:rgb(207,207,207);fill-rule:nonzero;"/>
    <path id="Icon" d="M50.261,32.86C28.743,54.378 28.743,89.265 50.261,110.783C70.273,130.795 102.718,130.795 122.73,110.783C141.113,92.4 141.113,62.596 122.73,44.213C105.976,27.459 78.812,27.459 62.058,44.213C46.933,59.338 46.933,83.861 62.059,98.986C75.555,112.482 97.437,112.482 110.933,98.986C122.8,87.118 122.8,67.878 110.933,56.01C100.694,45.772 84.094,45.772 73.856,56.01" style="fill:none;stroke:url(#_Linear1);stroke-width:8.32px;"/>
    <defs>
        <linearGradient id="_Linear1" x1="0" y1="0" x2="1" y2="0" gradientUnits="userSpaceOnUse" gradientTransform="matrix(-75.196,-75.196,69.5194,-69.5194,121.255,112.258)"><stop offset="0" style="stop-color:rgb(237,0,255);stop-opacity:1"/><stop offset="1" style="stop-color:rgb(18,233,253);stop-opacity:1"/></linearGradient>
    </defs>
</svg>
